<?xml version="1.0" encoding="UTF-8"?>
<svg width="20px" height="19px" viewBox="0 0 20 19" version="1.1" xmlns="http://www.w3.org/2000/svg" xmlns:xlink="http://www.w3.org/1999/xlink">
    <!-- Generator: Sketch 49 (51002) - http://www.bohemiancoding.com/sketch -->
    <title>Fill 1</title>
    <desc>Created with Sketch.</desc>
    <defs></defs>
    <g id="Page-1" stroke="none" stroke-width="1" fill="none" fill-rule="evenodd">
        <g id="Desktop-HD-–-GTL" transform="translate(-700.000000, -438.000000)" fill="#29313E">
            <g id="Post-1" transform="translate(450.000000, 300.000000)">
                <g id="Footer" transform="translate(20.000000, 138.000000)">
                    <g id="Favorite" transform="translate(230.000000, 0.000000)">
                        <path d="M18.2528581,8.21621897 L14.669208,11.1350655 C14.3173973,11.421227 14.1567662,11.8944426 14.2677259,12.3368958 L15.3500733,16.7438772 C15.4073937,17.0032348 15.3041309,17.1826103 15.2352412,17.2666464 C15.1282494,17.400093 14.9676184,17.4840814 14.8070351,17.4840814 C14.7075012,17.4840814 14.6081586,17.4535098 14.5009756,17.3810633 L10.580813,14.977355 C10.3935057,14.862795 10.1792832,14.8018904 9.95745934,14.8018904 C9.7355877,14.8018904 9.51763622,14.862795 9.33013771,14.9810751 L5.4482684,17.3886943 C5.19972053,17.5528078 4.86693697,17.4801705 4.69100772,17.2513845 C4.6183891,17.1559973 4.54180251,16.9918361 4.61074,16.7515082 L5.69308733,12.3331757 C5.8001269,11.8944426 5.643416,11.4251378 5.29533425,11.1389764 L1.76527563,8.22761774 C1.48608356,7.98728983 1.56247892,7.6781878 1.59312312,7.59043163 C1.62371951,7.50272315 1.74997743,7.20888306 2.11713413,7.18990102 L6.69516695,6.86181694 C7.1463681,6.82733449 7.53647209,6.54885173 7.7086246,6.12910061 L9.45639563,1.8901437 C9.59795174,1.54679768 9.91543711,1.52013698 10.0071307,1.52013698 C10.0989676,1.52013698 10.416453,1.54679768 10.5578179,1.8901437 L12.3057802,6.12910061 C12.4777414,6.54885173 12.8678454,6.82733449 13.3192378,6.86181694 L17.9047763,7.19362112 C18.2644273,7.21279393 18.390494,7.50663402 18.4211382,7.5943425 C18.4440855,7.6744677 18.5206721,7.98356973 18.2528581,8.21621897 M18.4804106,6.03792799 L13.6020568,5.68831051 C13.5001676,5.68017869 13.4104032,5.61903756 13.373825,5.52155735 L11.5153148,1.00834582 C11.2586049,0.38636315 10.6797213,0 10.0032788,0 C9.32668349,0 8.75197737,0.38636315 8.49129382,1.01251337 L6.62860613,5.52968917 C6.5877995,5.62320511 6.50226351,5.68831051 6.40037429,5.69649315 L1.53017171,6.04605981 C0.869878651,6.08260218 0.307501129,6.51363952 0.0913941044,7.14792157 C-0.1286866,7.79038626 0.0547649316,8.46517494 0.576335823,8.90851166 L4.34623678,12.0147149 C4.42387636,12.0798202 4.46050553,12.1856356 4.43600117,12.2831158 L3.28679272,16.9751765 C3.15224801,17.4632383 3.24598609,17.9673095 3.5435026,18.3617537 C3.84917024,18.7602129 4.32596082,19 4.82725576,19 C5.13710086,19 5.43859105,18.9064841 5.68714979,18.7397309 L9.80770247,16.1822732 C9.89323847,16.1294672 10.0032788,16.1294672 10.0888658,16.1822732 L14.2500213,18.7316499 C14.5109086,18.9064841 14.8123988,19 15.1180665,19 C15.5867059,19 16.0513717,18.7764766 16.3530656,18.3982452 C16.6668844,18.0079686 16.7808985,17.4997298 16.6668844,16.991491 L15.5134985,12.2872833 C15.4889942,12.1856356 15.5256233,12.0798202 15.6030082,12.0147149 L19.430018,8.90037984 C19.9434887,8.46121068 20.1269403,7.7862187 19.911037,7.14375401 C19.6991075,6.50967526 19.1325525,6.07447036 18.4804106,6.03792799" id="Fill-1"></path>
                    </g>
                </g>
            </g>
        </g>
    </g>
</svg>