<?xml version="1.0" encoding="UTF-8"?>
<svg width="26px" height="26px" viewBox="0 0 26 26" version="1.1" xmlns="http://www.w3.org/2000/svg" xmlns:xlink="http://www.w3.org/1999/xlink">
    <!-- Generator: Sketch 49.3 (51167) - http://www.bohemiancoding.com/sketch -->
    <title>Logo Signet</title>
    <desc>Created with Sketch.</desc>
    <defs>
        <filter x="-2.2%" y="-5.6%" width="104.4%" height="113.6%" filterUnits="objectBoundingBox" id="filter-1">
            <feOffset dx="0" dy="2" in="SourceAlpha" result="shadowOffsetOuter1"></feOffset>
            <feGaussianBlur stdDeviation="2" in="shadowOffsetOuter1" result="shadowBlurOuter1"></feGaussianBlur>
            <feColorMatrix values="0 0 0 0 0   0 0 0 0 0   0 0 0 0 0  0 0 0 0.5 0" type="matrix" in="shadowBlurOuter1" result="shadowMatrixOuter1"></feColorMatrix>
            <feMerge>
                <feMergeNode in="shadowMatrixOuter1"></feMergeNode>
                <feMergeNode in="SourceGraphic"></feMergeNode>
            </feMerge>
        </filter>
        <path d="M8.99053119,3.58353955 L3.58352797,3.58353955 L3.58352797,8.99054277 C3.58352797,11.9719447 6.00912926,14.397546 8.99053119,14.397546 C11.9719331,14.397546 14.3975344,11.9719447 14.3975344,8.99054277 C14.3975344,6.00919871 11.9719331,3.58353955 8.99053119,3.58353955 M8.99053119,2.89389068e-05 L2.31511254e-05,2.89389068e-05 L2.31511254e-05,8.99053698 C2.31511254e-05,13.9559325 4.02519357,17.9811029 8.99053119,17.9811029 C13.9559267,17.9811029 17.9810392,13.9559325 17.9810392,8.99053698 C17.9810392,4.02525723 13.9559267,2.89389068e-05 8.99053119,2.89389068e-05 M8.99053119,1.34383601 C13.2069299,1.34383601 16.6372322,4.77413826 16.6372322,8.99053698 C16.6372322,13.2069936 13.2069299,16.6372379 8.99053119,16.6372379 C4.77413248,16.6372379 1.34383023,13.2069936 1.34383023,8.99053698 L1.34383023,1.34383601 L8.99053119,1.34383601" id="path-2"></path>
    </defs>
    <g id="Page-1" stroke="none" stroke-width="1" fill="none" fill-rule="evenodd">
        <g id="Desktop-HD-–-GTL" transform="translate(-466.000000, -437.000000)">
            <g id="Post-1" filter="url(#filter-1)" transform="translate(450.000000, 300.000000)">
                <g id="Footer" transform="translate(20.000000, 138.000000)">
                    <g id="Inks" transform="translate(0.000000, 1.000000)">
                        <g id="Logo-Signet">
                            <mask id="mask-3" fill="white">
                                <use xlink:href="#path-2"></use>
                            </mask>
                            <use id="Fill-3" fill="#85BD3E" fill-rule="evenodd" xlink:href="#path-2"></use>
                            <g id="color/grün-copy" mask="url(#mask-3)" fill="#29313E" fill-rule="evenodd">
                                <rect id="Rectangle" x="0" y="0" width="18" height="18"></rect>
                            </g>
                        </g>
                    </g>
                </g>
            </g>
        </g>
    </g>
</svg>