<?xml version="1.0" encoding="utf-8"?>
<!-- Generator: Adobe Illustrator 22.0.1, SVG Export Plug-In . SVG Version: 6.00 Build 0)  -->
<svg version="1.1" id="Ebene_1" xmlns="http://www.w3.org/2000/svg" xmlns:xlink="http://www.w3.org/1999/xlink" x="0px" y="0px"
	 viewBox="0 0 23 19" style="enable-background:new 0 0 23 19;" xml:space="preserve">
<style type="text/css">
	.st0{fill:#29313E;}
</style>
<title>icon/photo</title>
<desc>Created with Sketch.</desc>
<g id="Page-1">
	<g id="Desktop-HD-_x2013_-GTL" transform="translate(-510.000000, -229.000000)">
		<g id="Share-something-_x2026_" transform="translate(450.000000, 100.000000)">
			<g id="Footer" transform="translate(60.000000, 128.000000)">
				<g id="icon_x2F_photo" transform="translate(0.000000, 1.000000)">
					<path id="Fill-1" class="st0" d="M21.6,5.1H21c-1.1,0-2,0.9-2,1.9v3.2h-2.8c-0.3-2.1-2.3-3.8-4.7-3.8c-2.4,0-4.3,1.7-4.7,3.8H4
						V7c0-1-0.9-1.9-2-1.9H1.3V4.4c0-0.3,0.3-0.6,0.7-0.6H21c0.4,0,0.7,0.3,0.7,0.6V5.1z M21.6,15.2H21c-0.4,0-0.7-0.3-0.7-0.6V7
						c0-0.3,0.3-0.6,0.7-0.6h0.7V15.2z M8.1,10.8c0-1.7,1.5-3.2,3.4-3.2c1.9,0,3.4,1.4,3.4,3.2c0,1.7-1.5,3.2-3.4,3.2
						C9.6,13.9,8.1,12.5,8.1,10.8z M21.6,17.1c0,0.3-0.3,0.6-0.7,0.6H2c-0.4,0-0.7-0.3-0.7-0.6v-0.6H2c1.1,0,2-0.9,2-1.9v-3.2h2.8
						c0.3,2.1,2.3,3.8,4.7,3.8c2.4,0,4.3-1.7,4.7-3.8h2.8v3.2c0,1,0.9,1.9,2,1.9h0.7V17.1z M1.3,6.3H2c0.4,0,0.7,0.3,0.7,0.6v7.6
						c0,0.3-0.3,0.6-0.7,0.6H1.3V6.3z M2.7,1.9c0-0.3,0.3-0.6,0.7-0.6C3.7,1.3,4,1.6,4,1.9v0.6H2.7V1.9z M8.1,1.9
						c0-0.3,0.3-0.6,0.7-0.6h5.4c0.4,0,0.7,0.3,0.7,0.6v0.6H8.1V1.9z M21,2.5h-4.8V1.9c0-1-0.9-1.9-2-1.9H8.8c-1.1,0-2,0.9-2,1.9
						v0.6H5.4V1.9c0-1-0.9-1.9-2-1.9c-1.1,0-2,0.9-2,1.9v0.7C0.6,2.9,0,3.6,0,4.4v12.7c0,1,0.9,1.9,2,1.9H21c1.1,0,2-0.9,2-1.9V4.4
						C23,3.4,22.1,2.5,21,2.5z"/>
					<path id="Fill-4" class="st0" d="M11.5,11.4c-0.4,0-0.7-0.3-0.7-0.6s0.3-0.6,0.7-0.6c0.4,0,0.7,0.3,0.7,0.6
						S11.9,11.4,11.5,11.4 M11.5,8.9c-1.1,0-2,0.9-2,1.9s0.9,1.9,2,1.9c1.1,0,2-0.9,2-1.9S12.6,8.9,11.5,8.9"/>
					<path id="Fill-6" class="st0" d="M6.7,5.7c0,0.3-0.3,0.6-0.7,0.6C5.7,6.3,5.4,6,5.4,5.7c0-0.3,0.3-0.6,0.7-0.6
						C6.4,5.1,6.7,5.4,6.7,5.7"/>
				</g>
			</g>
		</g>
	</g>
</g>
</svg>
