<?xml version="1.0" encoding="UTF-8"?>
<svg width="23px" height="25px" viewBox="0 0 23 25" version="1.1" xmlns="http://www.w3.org/2000/svg" xmlns:xlink="http://www.w3.org/1999/xlink">
    <!-- Generator: sketchtool 51.2 (57519) - http://www.bohemiancoding.com/sketch -->
    <title>FEB6C2B1-2858-4170-BC93-DF2A7EFEF44B-521-000012243BFD358A</title>
    <desc>Created with sketchtool.</desc>
    <defs>
        <path d="M9.63105469,16.3324219 L4.73681641,16.3324219 C4.48901367,16.3324219 4.2862793,16.1298828 4.2862793,15.8819336 C4.2862793,15.6341797 4.48901367,15.4313965 4.73681641,15.4313965 L9.92954102,15.4313965 C10.2166016,14.6993652 10.5996094,14.0796875 11.0728027,13.4601563 L4.73681641,13.4601563 C4.48901367,13.4601563 4.2862793,13.2576172 4.2862793,13.009668 C4.2862793,12.7618652 4.48901367,12.5591309 4.73681641,12.5591309 L11.9288574,12.5591309 C13.2803711,11.3763672 15.0713867,10.6218262 17.0256348,10.6218262 C17.2114258,10.6218262 17.363623,10.638623 17.588916,10.6556152 L17.588916,6.02607422 L14.209668,6.02607422 C12.903125,6.02607422 11.8443359,4.95605469 11.8443359,3.6550293 L11.8443359,0 L3.20498047,0 C2.08979492,0 1.2,0.912304687 1.2,2.03305664 L1.2,19.2216797 C1.2,20.3424316 2.08979492,21.2322266 3.20498047,21.2322266 L9.99135742,21.2322266 C9.60283203,20.3312012 9.38881836,19.3174316 9.38881836,18.2586914 C9.38310547,17.5941406 9.47333984,16.9519531 9.63105469,16.3324219 Z M4.73681641,9.74311523 L10.442041,9.74311523 C10.6898438,9.74311523 10.8925781,9.94584961 10.8925781,10.1938477 C10.8925781,10.4416016 10.6898438,10.6443359 10.442041,10.6443359 L4.73681641,10.6443359 C4.48901367,10.6443359 4.2862793,10.4416016 4.2862793,10.1938477 C4.2862793,9.94584961 4.48901367,9.74311523 4.73681641,9.74311523 Z M13.9675781,21.8967285 L20.6921387,15.3187012 C21.3454102,16.1354004 21.7396484,17.1659668 21.7396484,18.2867187 C21.7396484,20.8944336 19.6219238,23.0119629 17.0144043,23.0119629 C15.8541504,23.0119629 14.7898437,22.589502 13.9675781,21.8967285 Z M14.209668,5.12504883 C13.3986328,5.12504883 12.7453613,4.46054687 12.7453613,3.6550293 L12.7453613,0.681494141 L16.9693848,5.12504883 L14.209668,5.12504883 Z M17.0088867,13.5616211 C18.1688965,13.5616211 19.2333984,13.9841309 20.0499512,14.6766602 L13.3311035,21.2547363 C12.677832,20.4381836 12.2835938,19.407666 12.2835938,18.2867187 C12.2835938,15.6791504 14.401123,13.5616211 17.0088867,13.5616211 Z M17.0199219,11.5398438 C13.3085938,11.5398438 10.2898437,14.5583984 10.2898437,18.2699219 C10.2898437,21.98125 13.3085938,25 17.0199219,25 C20.7314453,25 23.7501953,21.98125 23.7501953,18.2699219 C23.7501953,14.5583984 20.7314453,11.5398438 17.0199219,11.5398438 Z M17.0088867,23.9129883 C13.9056152,23.9129883 11.3825684,21.3899414 11.3825684,18.2867188 C11.3825684,15.1836426 13.9056152,12.6605957 17.0088867,12.6605957 C20.1119141,12.6605957 22.6349609,15.1836426 22.6349609,18.2867188 C22.6349609,21.3899414 20.1119141,23.9129883 17.0088867,23.9129883 Z" id="path-1"></path>
    </defs>
    <g id="Page-2" stroke="none" stroke-width="1" fill="none" fill-rule="evenodd">
        <g id="Timeline-/-Detail-Post" transform="translate(-921.000000, -314.000000)">
            <g id="poste/lightbox" transform="translate(395.000000, 130.000000)">
                <g id="Report" transform="translate(525.000000, 184.000000)">
                    <g id="icon/comments">
                        <mask id="mask-2" fill="white">
                            <use xlink:href="#path-1"></use>
                        </mask>
                        <use id="Fill-5" fill="#000000" xlink:href="#path-1"></use>
                        
                    </g>
                </g>
            </g>
        </g>
    </g>
</svg>