<?xml version="1.0" encoding="utf-8"?>
<!-- Generator: Adobe Illustrator 22.0.1, SVG Export Plug-In . SVG Version: 6.00 Build 0)  -->
<svg version="1.1" id="Ebene_1" xmlns="http://www.w3.org/2000/svg" xmlns:xlink="http://www.w3.org/1999/xlink" x="0px" y="0px"
	 viewBox="0 0 19 22" style="enable-background:new 0 0 19 22;" xml:space="preserve">
<style type="text/css">
	.st0{fill:#29313E;}
</style>
<title>icon/place</title>
<desc>Created with Sketch.</desc>
<g id="Page-1">
	<g id="Desktop-HD-_x2013_-GTL" transform="translate(-911.000000, -228.000000)">
		<g id="Share-something-_x2026_" transform="translate(450.000000, 100.000000)">
			<g id="Footer" transform="translate(60.000000, 128.000000)">
				<g id="icon_x2F_place" transform="translate(401.000000, 0.000000)">
					<path id="Fill-1" class="st0" d="M9.5,20.7c-5,0-8.2-1.5-8.2-2.6c0-0.7,1.7-1.9,5.4-2.4L9,19.4c0.1,0.2,0.3,0.3,0.5,0.3
						c0.2,0,0.4-0.1,0.5-0.3l2.3-3.7c3.7,0.5,5.4,1.7,5.4,2.4C17.7,19.2,14.5,20.7,9.5,20.7z M4.9,10.6C4.9,10.5,4.9,10.5,4.9,10.6
						c-0.7-1-1.1-2.2-1.1-3.4c0-3.2,2.6-5.8,5.7-5.8c3.1,0,5.7,2.6,5.7,5.8c0,1.2-0.4,2.4-1,3.3c-0.1,0.1,0.3-0.4-4.7,7.4L4.9,10.6z
						 M13.1,14.5c2.3-3.7,2-3.2,2.1-3.3c0.8-1.2,1.3-2.6,1.3-4.1c0-3.9-3.1-7.1-7-7.1c-3.8,0-7,3.2-7,7.1c0,1.5,0.5,2.9,1.3,4.1
						l2,3.3C3.7,14.9,0,15.9,0,18.1c0,0.8,0.5,2,3,2.9c1.7,0.6,4,1,6.5,1c4.6,0,9.5-1.3,9.5-3.9C19,15.9,15.3,14.9,13.1,14.5z"/>
					<path id="Fill-3" class="st0" d="M9.5,9.1c-1,0-1.9-0.9-1.9-1.9c0-1.1,0.9-1.9,1.9-1.9c1,0,1.9,0.9,1.9,1.9
						C11.4,8.2,10.5,9.1,9.5,9.1 M9.5,3.9c-1.7,0-3.2,1.4-3.2,3.2c0,1.8,1.4,3.2,3.2,3.2c1.7,0,3.2-1.4,3.2-3.2
						C12.7,5.4,11.2,3.9,9.5,3.9"/>
				</g>
			</g>
		</g>
	</g>
</g>
</svg>
