<?xml version="1.0" encoding="utf-8"?>
<!-- Generator: Adobe Illustrator 22.0.1, SVG Export Plug-In . SVG Version: 6.00 Build 0)  -->
<svg version="1.1" id="Ebene_1" xmlns="http://www.w3.org/2000/svg" xmlns:xlink="http://www.w3.org/1999/xlink" x="0px" y="0px"
	 viewBox="0 0 21 19" style="enable-background:new 0 0 21 19;" xml:space="preserve">
<style type="text/css">
	.st0{fill:#29313E;}
</style>
<title>icon/video</title>
<desc>Created with Sketch.</desc>
<g id="Page-1">
	<g id="Desktop-HD-_x2013_-GTL" transform="translate(-711.000000, -229.000000)">
		<g id="Share-something-_x2026_" transform="translate(450.000000, 100.000000)">
			<g id="Footer" transform="translate(60.000000, 128.000000)">
				<g id="icon_x2F_video" transform="translate(201.000000, 1.000000)">
					<path id="Fill-1" class="st0" d="M19.8,17.1l-2.5-1.7V9.8l2.5-1.7V17.1z M14.8,15.2H16v-5.1h-1.2V15.2z M11.1,6.3
						c-1.4,0-2.5-1.1-2.5-2.5c0-1.4,1.1-2.5,2.5-2.5c1.4,0,2.5,1.1,2.5,2.5C13.5,5.2,12.4,6.3,11.1,6.3z M13.5,9.5v7.6
						c0,0.3-0.3,0.6-0.6,0.6H1.8c-0.3,0-0.6-0.3-0.6-0.6V8.2c0-0.3,0.3-0.6,0.6-0.6h11.1c0.3,0,0.6,0.3,0.6,0.6V9.5z M3.7,1.3
						c1.4,0,2.5,1.1,2.5,2.5c0,1.4-1.1,2.5-2.5,2.5c-1.4,0-2.5-1.1-2.5-2.5C1.2,2.4,2.3,1.3,3.7,1.3z M20,6.4l-3.6,2.4h-1.7V8.2
						c0-0.8-0.4-1.4-1.1-1.7c0.7-0.7,1.1-1.6,1.1-2.7c0-2.1-1.7-3.8-3.7-3.8C9,0,7.4,1.7,7.4,3.8c0,1,0.4,1.9,0.9,2.5H6.4
						C7,5.6,7.4,4.8,7.4,3.8C7.4,1.7,5.7,0,3.7,0C1.7,0,0,1.7,0,3.8c0,1.1,0.4,2,1.1,2.7C0.4,6.8,0,7.4,0,8.2v8.8
						c0,1,0.8,1.9,1.8,1.9h11.1c1,0,1.8-0.9,1.8-1.9v-0.6h1.7l3.6,2.4c0.4,0.3,1,0,1-0.5V6.9C21,6.4,20.4,6.1,20,6.4z"/>
					<path id="Fill-4" class="st0" d="M6.1,14v-2.7l2,1.3L6.1,14z M9.6,12.1L5.9,9.6c-0.4-0.3-1,0-1,0.5v5.1c0,0.5,0.5,0.8,1,0.5
						l3.7-2.5c0.2-0.1,0.3-0.3,0.3-0.5S9.7,12.2,9.6,12.1z"/>
					<path id="Fill-6" class="st0" d="M12.3,9.5c0,0.3-0.3,0.6-0.6,0.6c-0.3,0-0.6-0.3-0.6-0.6c0-0.3,0.3-0.6,0.6-0.6
						C12,8.8,12.3,9.1,12.3,9.5"/>
				</g>
			</g>
		</g>
	</g>
</g>
</svg>
