<?xml version="1.0" encoding="UTF-8"?>
<svg width="21px" height="21px" viewBox="0 0 21 21" version="1.1" xmlns="http://www.w3.org/2000/svg" xmlns:xlink="http://www.w3.org/1999/xlink">
    <!-- Generator: Sketch 49 (51002) - http://www.bohemiancoding.com/sketch -->
    <title>icon / alarm</title>
    <desc>Created with Sketch.</desc>
    <defs></defs>
    <g id="Page-1" stroke="none" stroke-width="1" fill="none" fill-rule="evenodd">
        <g id="Desktop-HD-–-GTL" transform="translate(-993.000000, -25.000000)" fill="#FFFFFF">
            <g id="Navigation">
                <g id="Profile-Section" transform="translate(922.000000, 17.000000)">
                    <g id="icon-/-alarm" transform="translate(71.000000, 8.000000)">
                        <path d="M10.4679002,21 C11.9129002,21 13.0849002,19.825 13.0849002,18.375 L7.84990018,18.375 C7.84990018,19.825 9.02090018,21 10.4679002,21 M18.9739002,15.75 L1.96390018,15.75 C1.37590018,15.75 1.70190018,15.355 1.70190018,15.355 C1.70190018,15.355 4.42590018,12.625 4.58090018,12.469 C4.73590018,12.312 4.77690018,12.074 4.77690018,12.074 L5.36490018,6.562 C5.36490018,6.562 5.88690018,1.313 10.4679002,1.313 C15.0479002,1.313 15.5709002,6.562 15.5709002,6.562 L16.1599002,12.074 C16.1599002,12.074 16.2009002,12.312 16.3569002,12.469 C16.5109002,12.625 19.2349002,15.355 19.2349002,15.355 C19.2349002,15.355 19.5619002,15.75 18.9739002,15.75 M20.2829002,14.438 C19.5559002,13.713 17.8849002,12.051 17.6659002,11.812 C17.4449002,11.574 17.4249002,11.156 17.4249002,11.156 L17.0109002,6.562 C17.0109002,6.562 16.3569002,0 10.4679002,0 C4.57890018,0 3.92590018,6.562 3.92590018,6.562 L3.51290018,11.156 C3.51290018,11.156 3.49390018,11.574 3.27290018,11.812 C3.05090018,12.051 1.38090018,13.713 0.656900184,14.438 C-0.0690998163,15.16 0.00190018369,16.406 0.00190018369,16.406 C0.00190018369,16.406 0.00190018369,17.062 0.656900184,17.062 L20.2829002,17.062 C20.9369002,17.062 20.9369002,16.406 20.9369002,16.406 C20.9369002,16.406 21.0089002,15.16 20.2829002,14.438" id="Fill-1"></path>
                    </g>
                </g>
            </g>
        </g>
    </g>
</svg>