<?xml version="1.0" encoding="UTF-8"?>
<svg width="28px" height="27px" viewBox="0 0 28 27" version="1.1" xmlns="http://www.w3.org/2000/svg" xmlns:xlink="http://www.w3.org/1999/xlink">
    <!-- Generator: Sketch 49.3 (51167) - http://www.bohemiancoding.com/sketch -->
    <title>Fill 1</title>
    <desc>Created with Sketch.</desc>
    <defs>
        <filter x="-2.2%" y="-5.6%" width="104.4%" height="113.6%" filterUnits="objectBoundingBox" id="filter-1">
            <feOffset dx="0" dy="2" in="SourceAlpha" result="shadowOffsetOuter1"></feOffset>
            <feGaussianBlur stdDeviation="2" in="shadowOffsetOuter1" result="shadowBlurOuter1"></feGaussianBlur>
            <feColorMatrix values="0 0 0 0 0   0 0 0 0 0   0 0 0 0 0  0 0 0 0.5 0" type="matrix" in="shadowBlurOuter1" result="shadowMatrixOuter1"></feColorMatrix>
            <feMerge>
                <feMergeNode in="shadowMatrixOuter1"></feMergeNode>
                <feMergeNode in="SourceGraphic"></feMergeNode>
            </feMerge>
        </filter>
    </defs>
    <g id="Page-1" stroke="none" stroke-width="1" fill="none" fill-rule="evenodd">
        <g id="Desktop-HD-–-GTL" transform="translate(-696.000000, -436.000000)" fill="#29313E">
            <g id="Post-1" filter="url(#filter-1)" transform="translate(450.000000, 300.000000)">
                <g id="Footer" transform="translate(20.000000, 138.000000)">
                    <path d="M248.252858,8.21621897 L244.669208,11.1350655 C244.317397,11.421227 244.156766,11.8944426 244.267726,12.3368958 L245.350073,16.7438772 C245.407394,17.0032348 245.304131,17.1826103 245.235241,17.2666464 C245.128249,17.400093 244.967618,17.4840814 244.807035,17.4840814 C244.707501,17.4840814 244.608159,17.4535098 244.500976,17.3810633 L240.580813,14.977355 C240.393506,14.862795 240.179283,14.8018904 239.957459,14.8018904 C239.735588,14.8018904 239.517636,14.862795 239.330138,14.9810751 L235.448268,17.3886943 C235.199721,17.5528078 234.866937,17.4801705 234.691008,17.2513845 C234.618389,17.1559973 234.541803,16.9918361 234.61074,16.7515082 L235.693087,12.3331757 C235.800127,11.8944426 235.643416,11.4251378 235.295334,11.1389764 L231.765276,8.22761774 C231.486084,7.98728983 231.562479,7.6781878 231.593123,7.59043163 C231.62372,7.50272315 231.749977,7.20888306 232.117134,7.18990102 L236.695167,6.86181694 C237.146368,6.82733449 237.536472,6.54885173 237.708625,6.12910061 L239.456396,1.8901437 C239.597952,1.54679768 239.915437,1.52013698 240.007131,1.52013698 C240.098968,1.52013698 240.416453,1.54679768 240.557818,1.8901437 L242.30578,6.12910061 C242.477741,6.54885173 242.867845,6.82733449 243.319238,6.86181694 L247.904776,7.19362112 C248.264427,7.21279393 248.390494,7.50663402 248.421138,7.5943425 C248.444086,7.6744677 248.520672,7.98356973 248.252858,8.21621897 M248.480411,6.03792799 L243.602057,5.68831051 C243.500168,5.68017869 243.410403,5.61903756 243.373825,5.52155735 L241.515315,1.00834582 C241.258605,0.38636315 240.679721,0 240.003279,0 C239.326683,0 238.751977,0.38636315 238.491294,1.01251337 L236.628606,5.52968917 C236.5878,5.62320511 236.502264,5.68831051 236.400374,5.69649315 L231.530172,6.04605981 C230.869879,6.08260218 230.307501,6.51363952 230.091394,7.14792157 C229.871313,7.79038626 230.054765,8.46517494 230.576336,8.90851166 L234.346237,12.0147149 C234.423876,12.0798202 234.460506,12.1856356 234.436001,12.2831158 L233.286793,16.9751765 C233.152248,17.4632383 233.245986,17.9673095 233.543503,18.3617537 C233.84917,18.7602129 234.325961,19 234.827256,19 C235.137101,19 235.438591,18.9064841 235.68715,18.7397309 L239.807702,16.1822732 C239.893238,16.1294672 240.003279,16.1294672 240.088866,16.1822732 L244.250021,18.7316499 C244.510909,18.9064841 244.812399,19 245.118066,19 C245.586706,19 246.051372,18.7764766 246.353066,18.3982452 C246.666884,18.0079686 246.780898,17.4997298 246.666884,16.991491 L245.513499,12.2872833 C245.488994,12.1856356 245.525623,12.0798202 245.603008,12.0147149 L249.430018,8.90037984 C249.943489,8.46121068 250.12694,7.7862187 249.911037,7.14375401 C249.699107,6.50967526 249.132552,6.07447036 248.480411,6.03792799" id="Fill-1"></path>
                </g>
            </g>
        </g>
    </g>
</svg>