<?xml version="1.0" encoding="UTF-8"?>
<svg width="22px" height="21px" viewBox="0 0 22 21" version="1.1" xmlns="http://www.w3.org/2000/svg" xmlns:xlink="http://www.w3.org/1999/xlink">
    <!-- Generator: Sketch 49 (51002) - http://www.bohemiancoding.com/sketch -->
    <title>icon / trash</title>
    <desc>Created with Sketch.</desc>
    <defs></defs>
    <g id="Page-1" stroke="none" stroke-width="1" fill="none" fill-rule="evenodd">
        <g id="Desktop-HD-–-GTL" transform="translate(-1076.000000, -25.000000)" fill="#FFFFFF">
            <g id="Navigation">
                <g id="Profile-Section" transform="translate(922.000000, 17.000000)">
                    <g id="icon-/-trash" transform="translate(154.000000, 8.000000)">
                        <path d="M1.34,5.25 L20.094,5.25 L20.094,3.938 L1.34,3.938 L1.34,5.25 Z M4.019,19.688 L17.415,19.688 L17.415,6.563 L4.019,6.563 L4.019,19.688 Z M10.717,1.313 C11.457,1.313 12.057,1.899 12.057,2.625 L9.378,2.625 C9.378,1.899 9.977,1.313 10.717,1.313 Z M20.094,2.625 L13.396,2.625 C13.396,1.175 12.197,0 10.717,0 C9.237,0 8.038,1.175 8.038,2.625 L1.34,2.625 C0.6,2.625 0,3.212 0,3.938 L0,5.25 C0,5.976 0.6,6.562 1.34,6.562 L2.679,6.562 L2.679,19.688 C2.679,20.413 3.279,21 4.019,21 L17.415,21 C18.155,21 18.755,20.413 18.755,19.688 L18.755,6.562 L20.094,6.562 C20.834,6.562 21.434,5.976 21.434,5.25 L21.434,3.938 C21.434,3.212 20.834,2.625 20.094,2.625 Z M12.727,18.375 C13.097,18.375 13.396,18.082 13.396,17.719 L13.396,8.531 C13.396,8.168 13.097,7.875 12.727,7.875 C12.356,7.875 12.057,8.168 12.057,8.531 L12.057,17.719 C12.057,18.082 12.356,18.375 12.727,18.375 Z M8.708,18.375 C9.078,18.375 9.378,18.082 9.378,17.719 L9.378,8.531 C9.378,8.168 9.078,7.875 8.708,7.875 C8.338,7.875 8.038,8.168 8.038,8.531 L8.038,17.719 C8.038,18.082 8.338,18.375 8.708,18.375 Z" id="Page-1"></path>
                    </g>
                </g>
            </g>
        </g>
    </g>
</svg>