<svg xmlns="http://www.w3.org/2000/svg" xmlns:xlink="http://www.w3.org/1999/xlink" version="1.1" x="0px" y="0px" viewBox="0 0 100 125" enable-background="new 0 0 100 100" xml:space="preserve">
	<path d="M58.387,23.164c0,4.632-3.755,8.387-8.387,8.387c-4.631,0-8.386-3.755-8.386-8.387s3.755-8.386,8.386-8.386  C54.632,14.778,58.387,18.532,58.387,23.164z M50,41.613c-4.631,0-8.386,3.755-8.386,8.387c0,4.633,3.755,8.387,8.386,8.387  c4.632,0,8.387-3.754,8.387-8.387C58.387,45.368,54.632,41.613,50,41.613z M50,68.451c-4.631,0-8.386,3.754-8.386,8.385  s3.755,8.387,8.386,8.387c4.632,0,8.387-3.756,8.387-8.387S54.632,68.451,50,68.451z"/>
</svg>