<?xml version="1.0" encoding="UTF-8"?>
<svg width="23px" height="21px" viewBox="0 0 23 21" version="1.1" xmlns="http://www.w3.org/2000/svg" xmlns:xlink="http://www.w3.org/1999/xlink">
    <!-- Generator: sketchtool 51.2 (57519) - http://www.bohemiancoding.com/sketch -->
    <title>B7D1EF00-7802-428F-B0FD-99906C2CD959-521-0000122421280217</title>
    <desc>Created with sketchtool.</desc>
    <defs>
        <path d="M3.917375,2.65 L21.082625,2.65 C22.5524375,2.65 23.75,3.84457229 23.75,5.31071479 L23.75,14.8010838 C23.75,16.2694707 22.5524375,17.4617986 21.082625,17.4617986 L11.799125,17.4617986 L7.433,22.2535541 C7.34525,22.3495014 7.2243125,22.4 7.098875,22.4 C7.0465625,22.4 6.9914375,22.3915836 6.9385625,22.3697008 C6.7653125,22.3034916 6.651125,22.1368462 6.651125,21.9505625 L6.651125,17.4617986 L3.917375,17.4617986 C2.4475625,17.4617986 1.25,16.2694707 1.25,14.8010838 L1.25,5.31071479 C1.25,3.84457229 2.4475625,2.65 3.917375,2.65 Z" id="path-1"></path>
    </defs>
    <g id="Page-2" stroke="none" stroke-width="1" fill="none" fill-rule="evenodd">
        <g id="Timeline" transform="translate(-334.000000, -410.000000)">
            <g id="post/single-post" transform="translate(165.000000, 130.000000)">
                <g id="Comments" transform="translate(168.000000, 278.000000)">
                    <g id="icon/comments">
                        <mask id="mask-2" fill="white">
                            <use xlink:href="#path-1"></use>
                        </mask>
                        <use id="Fill-1" fill="#999999" fill-rule="nonzero" xlink:href="#path-1"></use>
                        
                    </g>
                </g>
            </g>
        </g>
    </g>
</svg>