<?xml version="1.0" standalone="no"?>
<!DOCTYPE svg PUBLIC "-//W3C//DTD SVG 20010904//EN"
 "http://www.w3.org/TR/2001/REC-SVG-20010904/DTD/svg10.dtd">
<svg version="1.0" xmlns="http://www.w3.org/2000/svg"
 width="320.000000pt" height="320.000000pt" viewBox="0 0 320.000000 320.000000"
 preserveAspectRatio="xMidYMid meet">
<metadata>
Created by potrace 1.11, written by Peter Selinger 2001-2013
</metadata>
<g transform="translate(0.000000,320.000000) scale(0.100000,-0.100000)"
fill="#000000" stroke="none">
<path d="M2 2298 c3 -885 4 -894 26 -1001 49 -230 142 -447 270 -627 86 -121
251 -286 372 -372 548 -389 1281 -395 1834 -15 224 154 405 365 526 612 67
135 101 232 133 373 30 133 32 510 4 642 -68 318 -214 588 -441 816 -187 186
-381 306 -627 388 -222 74 -153 70 -1177 73 l-923 4 3 -893z m1858 635 c560
-122 968 -537 1076 -1098 26 -133 24 -367 -5 -505 -165 -784 -947 -1256 -1716
-1035 -189 54 -412 184 -564 329 -149 143 -299 391 -356 591 -53 183 -55 221
-55 1013 l0 733 763 -4 c725 -3 767 -5 857 -24z"/>
<path d="M643 2003 c3 -543 4 -560 26 -638 81 -286 257 -500 516 -625 152 -74
240 -94 415 -94 175 0 263 20 415 94 261 126 440 345 516 630 33 122 33 338 1
460 -92 343 -349 603 -697 701 -78 22 -95 23 -638 26 l-558 4 4 -558z"/>
</g>
</svg>
